<?xml version="1.0" standalone="no"?>
<!DOCTYPE svg PUBLIC "-//W3C//DTD SVG 20010904//EN"
 "http://www.w3.org/TR/2001/REC-SVG-20010904/DTD/svg10.dtd">
<svg version="1.0" xmlns="http://www.w3.org/2000/svg"
 width="600.000000pt" height="277.000000pt" viewBox="0 0 600.000000 277.000000"
 preserveAspectRatio="xMidYMid meet">

<g transform="translate(0.000000,277.000000) scale(0.100000,-0.100000)"
fill="#000000" stroke="none">
<path d="M0 1385 l0 -1385 3000 0 3000 0 0 1385 0 1385 -3000 0 -3000 0 0
-1385z m397 749 c24 -25 25 -30 20 -100 -10 -114 -35 -221 -74 -314 -69 -167
-131 -636 -90 -677 13 -14 16 -13 27 7 7 12 13 32 15 44 2 11 8 57 14 101 27
195 55 247 121 224 40 -14 71 1 145 71 199 188 375 274 421 205 14 -22 15 -29
3 -58 -17 -41 -84 -114 -123 -135 -17 -9 -60 -25 -96 -37 -43 -14 -66 -28 -68
-39 -17 -85 97 -125 183 -64 90 64 171 138 255 233 51 58 105 114 119 124 36
25 80 34 97 20 17 -14 18 -103 3 -168 -5 -24 -8 -45 -6 -47 2 -3 24 22 49 53
61 78 125 144 170 177 30 22 41 25 56 17 11 -6 22 -16 24 -22 5 -16 -26 -164
-49 -231 l-19 -56 64 58 c94 87 164 116 213 89 26 -14 74 -118 90 -198 8 -35
20 -66 27 -69 24 -9 64 22 219 171 85 81 161 147 171 147 11 0 33 -5 49 -11
32 -11 43 -37 43 -105 0 -43 37 -142 63 -171 53 -58 99 -33 306 167 42 41 100
93 127 115 27 22 58 48 68 57 11 10 36 29 57 44 31 21 41 24 59 14 20 -11 21
-17 15 -73 -4 -34 -18 -96 -31 -137 -13 -41 -24 -79 -24 -84 0 -5 27 16 59 48
72 68 154 110 185 94 50 -25 89 -87 101 -158 10 -59 23 -111 29 -117 15 -16
64 18 181 127 181 169 312 252 419 266 33 5 45 2 59 -14 22 -24 13 -33 -59
-56 -62 -20 -221 -123 -258 -166 -33 -40 -59 -94 -54 -117 4 -20 28 -28 63
-19 38 10 135 97 189 169 56 74 93 96 131 79 30 -14 34 -59 11 -114 -21 -51
-31 -134 -17 -143 21 -12 54 4 105 50 52 47 76 56 76 29 0 -43 -123 -147 -189
-160 -23 -5 -40 0 -66 17 -32 22 -35 28 -35 77 0 28 -2 52 -4 52 -3 0 -28 -25
-57 -55 -64 -68 -156 -115 -223 -115 -36 0 -52 6 -77 28 l-32 29 16 48 c10 27
17 51 17 54 0 3 -24 -17 -52 -45 -70 -67 -96 -82 -149 -85 l-44 -4 -43 80
c-60 113 -95 135 -161 100 -38 -19 -106 -97 -143 -163 -46 -80 -84 -100 -128
-64 l-22 18 22 85 c21 81 48 210 49 237 1 6 -3 12 -8 12 -23 0 -138 -89 -280
-218 -87 -79 -191 -129 -256 -123 -55 5 -109 85 -141 211 -10 38 -23 70 -29
70 -5 0 -48 -39 -95 -86 -113 -114 -172 -154 -228 -154 -48 0 -77 23 -107 86
-27 57 -74 104 -104 104 -55 0 -105 -49 -192 -187 -38 -62 -57 -74 -87 -55
-10 7 -11 19 -2 55 16 74 25 273 12 281 -16 10 -146 -139 -219 -251 -36 -56
-61 -66 -98 -39 -18 13 -17 16 10 99 25 77 30 115 26 180 -1 13 -37 -15 -125
-100 -143 -135 -208 -179 -292 -195 -56 -10 -63 -9 -112 16 -63 32 -94 83 -85
140 l6 37 -54 -56 c-53 -55 -55 -56 -104 -53 -56 3 -51 14 -75 -146 -29 -193
-87 -288 -170 -276 -79 10 -99 174 -55 433 10 54 14 101 11 104 -3 4 -19 -6
-34 -20 -32 -31 -47 -34 -56 -11 -5 12 12 36 54 80 l60 62 1 84 c1 124 7 184
25 257 27 106 70 192 112 223 46 34 47 34 79 2z m2129 -113 c14 -45 7 -75 -26
-111 -20 -21 -37 -30 -60 -30 -37 0 -73 17 -65 31 4 5 1 9 -4 9 -26 0 -9 53
31 96 36 39 46 45 77 42 31 -3 38 -8 47 -37z m-1426 -195 c0 -13 -27 -37 -65
-59 -6 -3 -17 -1 -25 4 -12 7 -8 15 20 39 38 32 70 39 70 16z m2621 -906 c-1
-14 -8 -40 -15 -60 -10 -30 -15 -35 -46 -36 -43 -2 -70 11 -70 34 0 31 25 54
61 56 24 1 35 7 37 19 6 29 38 16 33 -13z m1379 14 c0 -2 -7 -4 -15 -4 -8 0
-15 4 -15 10 0 5 7 7 15 4 8 -4 15 -8 15 -10z m-1854 -11 c17 -23 17 -33 0
-33 -18 0 -27 -25 -14 -38 16 -16 1 -30 -25 -25 -20 4 -23 10 -22 45 1 27 7
45 20 54 24 18 25 18 41 -3z m1069 -4 c5 -15 2 -25 -10 -31 -12 -7 -15 -17
-11 -34 6 -21 3 -24 -19 -24 -22 0 -25 4 -25 37 0 59 51 99 65 52z m1150 0 c5
-15 2 -25 -9 -31 -11 -6 -14 -17 -10 -33 7 -28 -17 -45 -39 -27 -21 18 -9 88
16 100 31 15 35 14 42 -9z m-920 -40 c0 -9 -13 -15 -38 -17 -20 -2 -35 -7 -32
-13 4 -5 18 -6 33 -3 21 5 24 4 16 -6 -19 -20 -81 -21 -90 -2 -11 27 -5 45 24
69 26 22 27 22 57 5 16 -10 30 -25 30 -33z m-1540 27 c27 -19 13 -46 -25 -46
-16 0 -30 -5 -30 -11 0 -7 10 -9 24 -5 14 3 27 2 30 -3 3 -5 -11 -11 -32 -14
-69 -12 -98 58 -34 82 37 13 45 13 67 -3z m146 -3 c14 -14 -5 -78 -25 -81 -14
-3 -17 2 -15 25 4 35 -12 43 -27 14 -28 -55 -60 -53 -43 2 6 17 12 37 14 43 4
13 83 10 96 -3z m209 7 c0 -5 -9 -14 -21 -20 -11 -7 -25 -25 -31 -41 -18 -51
-43 -32 -32 25 5 30 11 35 38 39 17 2 34 5 39 5 4 1 7 -2 7 -8z m101 0 c24
-14 25 -52 0 -74 -23 -21 -78 -11 -95 18 -9 14 -6 22 17 42 31 26 48 29 78 14z
m379 -5 c20 -25 4 -45 -37 -46 l-38 -2 40 -7 40 -6 -27 -12 c-39 -16 -78 0
-78 32 0 45 72 74 100 41z m221 5 c10 -6 19 -20 19 -30 0 -16 -7 -20 -36 -20
-21 0 -33 -4 -29 -10 3 -6 17 -7 31 -4 14 4 24 2 24 -5 0 -17 -85 -14 -99 3
-16 19 1 54 32 66 29 12 35 12 58 0z m359 -2 c0 -4 -9 -12 -19 -17 -10 -6 -24
-24 -29 -41 -7 -17 -18 -30 -28 -30 -14 0 -15 7 -10 42 4 22 9 44 11 48 5 9
75 7 75 -2z m250 3 c15 -2 12 -67 -5 -81 -22 -18 -35 -3 -28 32 8 42 -18 33
-31 -10 -9 -33 -32 -43 -42 -19 -5 15 12 69 26 77 7 4 49 5 80 1z m134 -4 c14
-10 17 -21 11 -45 -6 -31 -8 -32 -61 -32 -38 0 -54 4 -54 13 0 21 22 37 52 37
15 0 28 4 28 10 0 5 -13 7 -30 4 -32 -7 -43 11 -12 19 32 9 48 7 66 -6z m222
0 c11 -11 -9 -69 -28 -81 -24 -14 -30 -4 -18 29 6 15 8 30 6 33 -9 9 -35 -19
-38 -41 -2 -14 -10 -22 -23 -22 -17 0 -19 6 -17 33 4 40 -13 42 -27 2 -5 -16
-17 -30 -25 -30 -18 0 -19 4 -10 48 5 27 11 31 43 34 61 5 129 3 137 -5z m185
3 c10 -6 19 -20 19 -30 0 -16 -7 -20 -35 -20 -19 0 -35 -5 -35 -11 0 -7 11 -8
30 -4 17 4 30 2 30 -3 0 -14 -50 -21 -77 -11 -30 11 -31 52 -1 73 26 19 42 20
69 6z m374 -6 c37 -38 -14 -95 -68 -75 -46 18 -42 61 8 81 30 13 42 12 60 -6z
m-2710 -3 c3 -6 -12 -11 -32 -13 -27 -2 -39 -8 -41 -22 -3 -16 1 -17 40 -11
l43 7 -19 -21 c-33 -36 -113 -10 -100 33 4 12 12 24 18 28 16 11 84 10 91 -1z
m1341 -33 c-8 -50 -10 -52 -31 -44 -13 4 -15 13 -10 36 9 40 -13 40 -28 1 -6
-16 -19 -32 -30 -35 -17 -4 -18 -1 -12 32 10 51 10 52 67 52 l51 0 -7 -42z
m884 35 c0 -28 -23 -84 -33 -80 -17 5 -20 29 -8 60 9 24 41 39 41 20z m270
-22 c0 -29 -22 -61 -41 -61 -6 0 -7 14 -3 35 8 47 -11 46 -31 -1 -17 -41 -41
-41 -38 1 4 50 9 55 63 55 49 0 50 -1 50 -29z m-1853 -206 c3 -9 -2 -24 -11
-34 -12 -13 -15 -27 -10 -45 5 -21 3 -26 -13 -26 -11 0 -25 11 -31 25 -14 31
-30 32 -34 3 -2 -15 -11 -24 -25 -26 -26 -4 -27 -1 -11 67 l11 51 59 0 c44 0
60 -4 65 -15z m978 -22 c3 -21 9 -48 12 -60 6 -26 -15 -31 -47 -11 -15 9 -24
9 -43 -1 -13 -7 -32 -11 -41 -9 -13 2 -9 14 22 60 29 46 42 58 63 58 23 0 28
-5 34 -37z m95 27 c0 -5 -5 -32 -11 -60 -9 -40 -15 -50 -31 -50 -16 0 -19 5
-15 23 3 12 9 39 12 60 5 27 12 37 26 37 11 0 19 -4 19 -10z m202 -2 c-9 -9
-15 -9 -24 0 -9 9 -7 12 12 12 19 0 21 -3 12 -12z m418 3 c0 -5 -5 -32 -12
-60 l-11 -50 -45 2 c-57 3 -73 23 -49 61 12 18 26 26 46 26 16 0 31 6 35 15 6
16 36 21 36 6z m-1601 -22 c25 -9 31 -16 31 -40 0 -31 -23 -49 -64 -49 -53 0
-67 54 -23 85 12 8 22 15 23 15 0 0 15 -5 33 -11z m361 -4 c11 -10 15 -26 12
-49 l-4 -35 -55 0 c-50 0 -54 2 -51 22 2 15 13 23 36 28 48 10 51 19 7 19 -42
0 -38 15 5 23 14 2 27 5 29 6 3 0 12 -6 21 -14z m748 -24 c3 -18 -2 -21 -32
-21 -48 0 -55 -18 -9 -22 l38 -4 -29 -8 c-61 -18 -107 24 -71 64 32 35 97 30
103 -9z m705 22 c4 -3 7 -22 5 -44 l-2 -39 -59 0 c-55 0 -58 1 -55 22 2 18 13
25 48 32 l45 10 -40 6 c-36 5 -38 6 -20 17 18 11 55 8 78 -4z m-1579 -1 c3 -5
3 -25 -1 -45 -4 -28 -10 -37 -25 -37 -15 0 -19 6 -16 30 4 40 -15 42 -27 3 -6
-22 -15 -33 -28 -33 -15 0 -17 5 -12 30 5 23 3 30 -8 30 -8 0 -17 -13 -20 -30
-5 -22 -12 -30 -28 -30 -19 0 -21 4 -14 37 4 21 9 41 11 45 7 11 162 10 168 0z
m278 -17 c-7 -52 -13 -65 -32 -65 -16 0 -18 5 -13 38 6 33 5 36 -9 24 -9 -7
-19 -24 -22 -37 -9 -36 -36 -32 -36 4 0 55 8 62 64 59 44 -3 51 -6 48 -23z
m126 13 c33 -33 1 -77 -56 -78 -25 0 -35 6 -44 25 -9 21 -8 28 7 45 20 22 74
27 93 8z m537 -24 c-11 -62 -24 -87 -41 -80 -9 3 -20 6 -26 6 -5 0 -2 7 6 16
9 8 16 22 16 29 0 29 20 65 36 65 13 0 15 -7 9 -36z m133 -6 l-3 -43 -53 -3
c-51 -3 -53 -2 -50 20 2 16 12 24 36 29 47 10 51 19 8 19 -22 0 -35 4 -31 10
3 6 26 10 51 10 l45 0 -3 -42z m146 34 c3 -5 1 -25 -5 -45 -7 -27 -15 -37 -30
-37 -17 0 -19 5 -14 38 l6 37 -20 -24 c-12 -13 -21 -29 -21 -37 0 -8 -9 -14
-20 -14 -23 0 -23 2 -9 53 10 36 11 37 59 37 27 0 51 -4 54 -8z m229 -11 c-13
-11 -27 -31 -33 -45 -5 -15 -17 -26 -28 -26 -18 0 -18 4 -9 45 10 44 11 45 51
45 l41 -1 -22 -18z"/>
<path d="M310 1963 c-12 -46 -25 -183 -17 -183 13 0 59 170 53 195 -9 36 -23
31 -36 -12z"/>
<path d="M880 1643 c-21 -8 -150 -123 -150 -134 0 -30 126 27 170 77 40 46 30
76 -20 57z"/>
<path d="M3640 869 c0 -24 23 -21 28 4 2 10 -3 17 -12 17 -10 0 -16 -9 -16
-21z"/>
<path d="M4481 891 c-10 -7 -10 -10 -1 -16 6 -4 16 -3 22 3 13 13 -4 23 -21
13z"/>
<path d="M2958 883 c7 -3 16 -2 19 1 4 3 -2 6 -13 5 -11 0 -14 -3 -6 -6z"/>
<path d="M3405 880 c-8 -14 3 -30 21 -30 8 0 14 9 14 20 0 21 -24 28 -35 10z"/>
<path d="M3785 890 c-3 -5 1 -10 9 -10 9 0 16 5 16 10 0 6 -4 10 -9 10 -6 0
-13 -4 -16 -10z"/>
<path d="M4015 890 c-3 -5 3 -10 15 -10 12 0 18 5 15 10 -3 6 -10 10 -15 10
-5 0 -12 -4 -15 -10z"/>
<path d="M4745 850 c3 -5 10 -10 16 -10 5 0 9 5 9 10 0 6 -7 10 -16 10 -8 0
-12 -4 -9 -10z"/>
<path d="M5166 891 c-3 -5 1 -11 9 -15 15 -6 29 7 18 18 -9 9 -21 8 -27 -3z"/>
<path d="M5527 876 c-7 -16 1 -26 20 -26 7 0 13 9 13 20 0 23 -25 27 -33 6z"/>
<path d="M3437 664 c-4 -4 -4 -10 -2 -14 6 -10 45 0 45 11 0 10 -33 12 -43 3z"/>
<path d="M4446 641 c-4 -7 -5 -15 -2 -18 9 -9 19 4 14 18 -4 11 -6 11 -12 0z"/>
<path d="M5123 624 c-9 -23 11 -38 26 -20 13 16 7 36 -10 36 -5 0 -12 -7 -16
-16z"/>
<path d="M3577 633 c-4 -3 -7 -15 -7 -25 0 -26 24 -17 28 10 3 21 -8 29 -21
15z"/>
<path d="M3910 600 c0 -5 7 -10 15 -10 8 0 15 5 15 10 0 6 -7 10 -15 10 -8 0
-15 -4 -15 -10z"/>
<path d="M4650 630 c0 -5 7 -10 15 -10 8 0 15 5 15 10 0 6 -7 10 -15 10 -8 0
-15 -4 -15 -10z"/>
<path d="M5355 600 c-3 -5 1 -10 9 -10 8 0 18 5 21 10 3 6 -1 10 -9 10 -8 0
-18 -4 -21 -10z"/>
<path d="M4183 624 c-7 -18 11 -39 26 -30 17 11 13 46 -4 46 -9 0 -18 -7 -22
-16z"/>
<path d="M4845 600 c-3 -5 3 -10 14 -10 12 0 21 5 21 10 0 6 -6 10 -14 10 -8
0 -18 -4 -21 -10z"/>
</g>
</svg>
